<?xml version="1.0" encoding="UTF-8" standalone="no"?>
<!-- Created with Inkscape (http://www.inkscape.org/) -->

<svg
   xmlns:dc="http://purl.org/dc/elements/1.1/"
   xmlns:cc="http://creativecommons.org/ns#"
   xmlns:rdf="http://www.w3.org/1999/02/22-rdf-syntax-ns#"
   xmlns:svg="http://www.w3.org/2000/svg"
   xmlns="http://www.w3.org/2000/svg"
   xmlns:sodipodi="http://sodipodi.sourceforge.net/DTD/sodipodi-0.dtd"
   xmlns:inkscape="http://www.inkscape.org/namespaces/inkscape"
   width="113.85142mm"
   height="135.1098mm"
   viewBox="0 0 113.85142 135.1098"
   version="1.1"
   id="svg37916"
   inkscape:version="0.92.2 (5c3e80d, 2017-08-06)"
   sodipodi:docname="logo.svg"
   inkscape:export-filename="/home/filhocf/git/ideax/logo.svg.png"
   inkscape:export-xdpi="96"
   inkscape:export-ydpi="96">
  <defs
     id="defs37910" />
  <sodipodi:namedview
     id="base"
     pagecolor="#ffffff"
     bordercolor="#666666"
     borderopacity="1.0"
     inkscape:pageopacity="0.0"
     inkscape:pageshadow="2"
     inkscape:zoom="1.5646688"
     inkscape:cx="193.10288"
     inkscape:cy="255.32563"
     inkscape:document-units="mm"
     inkscape:current-layer="g37754"
     showgrid="false"
     fit-margin-top="0"
     fit-margin-left="0"
     fit-margin-right="0"
     fit-margin-bottom="0"
     inkscape:window-width="1920"
     inkscape:window-height="991"
     inkscape:window-x="0"
     inkscape:window-y="60"
     inkscape:window-maximized="1" />
  <metadata
     id="metadata37913">
    <rdf:RDF>
      <cc:Work
         rdf:about="">
        <dc:format>image/svg+xml</dc:format>
        <dc:type
           rdf:resource="http://purl.org/dc/dcmitype/StillImage" />
        <dc:title />
      </cc:Work>
    </rdf:RDF>
  </metadata>
  <g
     inkscape:label="Camada 1"
     inkscape:groupmode="layer"
     id="layer1"
     transform="translate(-56.607029,-153.76654)">
    <g
       transform="matrix(0.35277777,0,0,-0.35277777,-566.58528,-123.78656)"
       style="fill:#f9f9f9;stroke:#f9f9f9"
       id="g37754">
      <rect
         style="fill:#46586a;fill-opacity:1;stroke:none;stroke-width:12.91461277;stroke-linecap:round;stroke-linejoin:round;stroke-miterlimit:4;stroke-dasharray:none;stroke-opacity:1"
         id="rect38976"
         width="322.72842"
         height="382.9884"
         x="1766.5294"
         y="786.76471"
         transform="scale(1,-1)"
         rx="5.6477475"
         ry="5.6525397" />
      <g
         id="g39027"
         transform="translate(2.5393669,2.3790662)">
        <g
           style="stroke-width:3.75;stroke-miterlimit:4;stroke-dasharray:none"
           id="g39000">
          <g
             style="fill:#f9f9f9;stroke:#f9f9f9;stroke-width:4.72668028;stroke-miterlimit:4;stroke-dasharray:none;stroke-opacity:1"
             id="g36831"
             transform="matrix(0.79336864,0,0,0.79336864,1891.5331,-1105.2789)">
            <path
               d="m 0,0 c -4.569,0 -8.287,-3.718 -8.287,-8.287 0,-4.571 3.718,-8.29 8.287,-8.29 h 84.054 c 4.573,0 8.293,3.719 8.293,8.29 0,4.569 -3.72,8.287 -8.293,8.287 z M 84.054,-23.577 H 0 c -8.429,0 -15.287,6.859 -15.287,15.29 C -15.287,0.143 -8.429,7 0,7 h 84.054 c 8.432,0 15.293,-6.857 15.293,-15.287 0,-8.431 -6.861,-15.29 -15.293,-15.29"
               style="fill:#f9f9f9;fill-opacity:1;fill-rule:nonzero;stroke:#f9f9f9;stroke-width:4.72668028;stroke-miterlimit:4;stroke-dasharray:none;stroke-opacity:1"
               id="path36829"
               inkscape:connector-curvature="0" />
          </g>
          <g
             style="fill:#f9f9f9;stroke:#f9f9f9;stroke-width:4.72668028;stroke-miterlimit:4;stroke-dasharray:none;stroke-opacity:1"
             id="g36835"
             transform="matrix(0.79336864,0,0,0.79336864,1890.092,-1134.9132)">
            <path
               sodipodi:nodetypes="ccccccsccscc"
               d="M 0,0 C 1.637,-11.027 10.889,-19.692 22.4,-20.357 H 65.341 C 76.823,-19.681 86.053,-11.016 87.687,0 Z M 19.29,-27.072 C 4.202,-24.88 -7.257,-11.938 -7.257,3.5 V 7 H 94.944 V 3.5 c 0,-15.421 -11.431,-28.36 -26.487,-30.568 z"
               style="fill:#f9f9f9;fill-opacity:1;fill-rule:nonzero;stroke:#f9f9f9;stroke-width:4.72668028;stroke-linecap:round;stroke-linejoin:round;stroke-miterlimit:4;stroke-dasharray:none;stroke-opacity:1"
               id="path36833"
               inkscape:connector-curvature="0" />
          </g>
          <g
             id="g38974"
             style="fill:#ffffff;fill-opacity:1;stroke:#ffffff;stroke-width:3.75;stroke-miterlimit:4;stroke-dasharray:none;stroke-opacity:1">
            <g
               transform="matrix(0.79336864,0,0,0.79336864,1928.3542,-850.90006)"
               id="g36839"
               style="fill:#ffffff;fill-opacity:1;stroke:#ffffff;stroke-width:4.72668028;stroke-miterlimit:4;stroke-dasharray:none;stroke-opacity:1">
              <path
                 inkscape:connector-curvature="0"
                 id="path36837"
                 style="fill:#ffffff;fill-opacity:1;fill-rule:nonzero;stroke:#ffffff;stroke-width:4.72668028;stroke-miterlimit:4;stroke-dasharray:none;stroke-opacity:1"
                 d="m 0,0 c -1.657,0 -3,1.343 -3,3 v 52 c 0,1.657 1.343,3 3,3 1.657,0 3,-1.343 3,-3 V 3 C 3,1.343 1.657,0 0,0" />
            </g>
            <g
               transform="matrix(0.79336864,0,0,0.79336864,1991.5734,-866.34671)"
               id="g36843"
               style="fill:#ffffff;fill-opacity:1;stroke:#ffffff;stroke-width:4.72668028;stroke-miterlimit:4;stroke-dasharray:none;stroke-opacity:1">
              <path
                 inkscape:connector-curvature="0"
                 id="path36841"
                 style="fill:#ffffff;fill-opacity:1;fill-rule:nonzero;stroke:#ffffff;stroke-width:4.72668028;stroke-miterlimit:4;stroke-dasharray:none;stroke-opacity:1"
                 d="m 0,0 c -0.529,0 -1.065,0.14 -1.552,0.435 -1.417,0.858 -1.87,2.703 -1.011,4.12 l 26.952,44.471 c 0.859,1.417 2.701,1.871 4.12,1.011 1.417,-0.859 1.87,-2.704 1.011,-4.12 L 2.568,1.446 C 2.004,0.515 1.015,0 0,0" />
            </g>
            <g
               transform="matrix(0.79336864,0,0,0.79336864,2030.8553,-916.14567)"
               id="g36847"
               style="fill:#ffffff;fill-opacity:1;stroke:#ffffff;stroke-width:4.72668028;stroke-miterlimit:4;stroke-dasharray:none;stroke-opacity:1">
              <path
                 inkscape:connector-curvature="0"
                 id="path36845"
                 style="fill:#ffffff;fill-opacity:1;fill-rule:nonzero;stroke:#ffffff;stroke-width:4.72668028;stroke-miterlimit:4;stroke-dasharray:none;stroke-opacity:1"
                 d="m 0,0 c -1.082,0 -2.127,0.587 -2.662,1.612 -0.767,1.469 -0.198,3.281 1.27,4.048 l 46.098,24.063 c 1.471,0.767 3.282,0.196 4.048,-1.272 0.767,-1.469 0.198,-3.281 -1.271,-4.048 L 1.386,0.341 C 0.942,0.109 0.467,0 0,0" />
            </g>
            <g
               transform="matrix(0.79336864,0,0,0.79336864,1859.1351,-866.34671)"
               id="g36859"
               style="fill:#ffffff;fill-opacity:1;stroke:#ffffff;stroke-width:4.72668028;stroke-miterlimit:4;stroke-dasharray:none;stroke-opacity:1">
              <path
                 inkscape:connector-curvature="0"
                 id="path36857"
                 style="fill:#ffffff;fill-opacity:1;fill-rule:nonzero;stroke:#ffffff;stroke-width:4.72668028;stroke-miterlimit:4;stroke-dasharray:none;stroke-opacity:1"
                 d="M 0,0 C -1.015,0 -2.004,0.515 -2.568,1.446 L -29.52,45.917 c -0.859,1.416 -0.406,3.261 1.011,4.12 1.416,0.86 3.262,0.406 4.12,-1.011 L 2.563,4.555 C 3.421,3.139 2.969,1.293 1.552,0.435 1.066,0.14 0.529,0 0,0" />
            </g>
            <g
               transform="matrix(0.79336864,0,0,0.79336864,1819.8536,-916.14567)"
               id="g36863"
               style="fill:#ffffff;fill-opacity:1;stroke:#ffffff;stroke-width:4.72668028;stroke-miterlimit:4;stroke-dasharray:none;stroke-opacity:1">
              <path
                 inkscape:connector-curvature="0"
                 id="path36861"
                 style="fill:#ffffff;fill-opacity:1;fill-rule:nonzero;stroke:#ffffff;stroke-width:4.72668028;stroke-miterlimit:4;stroke-dasharray:none;stroke-opacity:1"
                 d="m 0,0 c -0.468,0 -0.942,0.109 -1.386,0.341 l -46.097,24.062 c -1.469,0.767 -2.038,2.579 -1.272,4.048 0.768,1.469 2.58,2.037 4.048,1.272 L 1.391,5.66 C 2.859,4.893 3.429,3.081 2.662,1.612 2.126,0.587 1.082,0 0,0" />
            </g>
          </g>
          <g
             style="fill:#f9f9f9;stroke:#f9f9f9;stroke-width:5.27149296;stroke-miterlimit:4;stroke-dasharray:none;stroke-opacity:1"
             transform="matrix(0.79336864,0,0,0.63785254,1607.23,-1263.1949)"
             id="g36881">
            <g
               style="fill:#f9f9f9;stroke:#f9f9f9;stroke-width:5.90175056;stroke-miterlimit:4;stroke-dasharray:none;stroke-opacity:1"
               transform="matrix(1,0,0,0.79782118,380.6682,270.91934)"
               id="g36875">
              <path
                 sodipodi:nodetypes="ccccccccc"
                 inkscape:connector-curvature="0"
                 style="fill:#f9f9f9;fill-opacity:1;fill-rule:nonzero;stroke:#f9f9f9;stroke-width:5.57631588;stroke-linecap:round;stroke-linejoin:round;stroke-miterlimit:4;stroke-dasharray:none;stroke-opacity:1"
                 d="m 1350.4551,700.66406 c -2.5696,-2.34987 -8.5263,2.48414 -7.2735,4.1836 l 31.0704,38.15625 27.4843,100.09961 8.2657,-1.44532 -28.1114,-102.39062 v 0 -0.002 z"
                 transform="matrix(0.9453361,0,0,-1.1848972,-1325.1111,998.98995)"
                 id="path36873" />
            </g>
            <g
               style="fill:#f9f9f9;stroke:#f9f9f9;stroke-width:5.90175056;stroke-miterlimit:4;stroke-dasharray:none;stroke-opacity:1"
               id="g36879"
               transform="matrix(-1,0,0,0.79782118,420.10075,270.91934)">
              <path
                 sodipodi:nodetypes="ccccccccc"
                 id="path36877"
                 transform="matrix(0.9453361,0,0,-1.1848972,-1325.1111,998.98995)"
                 d="m 1350.4551,700.66406 c -1.6651,-2.1473 -8.8356,2.55295 -7.2735,4.1836 l 31.0704,38.15625 27.4843,100.09961 8.2657,-1.44532 -28.1114,-102.39062 v 0 -0.002 z"
                 style="fill:#f9f9f9;fill-opacity:1;fill-rule:nonzero;stroke:#f9f9f9;stroke-width:5.57631588;stroke-linecap:round;stroke-linejoin:round;stroke-miterlimit:4;stroke-dasharray:none;stroke-opacity:1"
                 inkscape:connector-curvature="0" />
            </g>
          </g>
          <g
             style="fill:#ffffff;fill-opacity:1;stroke:#ffffff;stroke-width:4.72668028;stroke-miterlimit:4;stroke-dasharray:none;stroke-opacity:1"
             id="g36885"
             transform="matrix(0.79336864,0,0,0.79336864,1886.1022,-1088.6089)">
            <path
               d="m 0,0 h 97.129 v 34.186 l 0.499,0.832 c 11.608,19.35 25.716,40.009 37.741,55.264 15.412,19.541 23.558,43.014 23.558,67.882 0,60.681 -49.363,110.049 -110.04,110.049 -60.683,0 -110.053,-49.368 -110.053,-110.049 0,-24.853 8.143,-48.32 23.548,-67.865 13.34,-16.928 26.181,-35.706 37.134,-54.306 L 0,35.171 Z M 104.129,-7 H -7 v 40.261 c -10.689,18.064 -23.164,36.269 -36.116,52.705 -16.388,20.791 -25.05,45.757 -25.05,72.198 0,64.541 52.51,117.049 117.053,117.049 64.536,0 117.04,-52.508 117.04,-117.049 0,-26.456 -8.666,-51.428 -25.061,-72.216 -11.68,-14.817 -25.369,-34.833 -36.737,-53.702 z"
               style="fill:#ffffff;fill-opacity:1;fill-rule:nonzero;stroke:#ffffff;stroke-width:4.72668028;stroke-linecap:round;stroke-linejoin:round;stroke-miterlimit:4;stroke-dasharray:none;stroke-opacity:1"
               id="path36883"
               inkscape:connector-curvature="0" />
          </g>
        </g>
        <text
           id="text36889"
           y="1014.9995"
           x="1873.769"
           style="font-style:normal;font-weight:normal;font-size:131.09613037px;line-height:1.25;font-family:sans-serif;letter-spacing:0px;word-spacing:0px;fill:#f9f9f9;fill-opacity:1;stroke:#f9f9f9;stroke-width:3.27740288;stroke-opacity:1"
           xml:space="preserve"
           transform="scale(1,-1)"
           inkscape:transform-center-x="-123.05808"
           inkscape:transform-center-y="49.776298"><tspan
             style="font-style:normal;font-variant:normal;font-weight:bold;font-stretch:normal;font-size:131.09613037px;font-family:'DejaVu Serif';-inkscape-font-specification:'DejaVu Serif, Normal';font-variant-ligatures:normal;font-variant-caps:normal;font-variant-numeric:normal;font-feature-settings:normal;text-align:start;writing-mode:lr-tb;text-anchor:start;fill:#f9f9f9;fill-opacity:1;stroke:#f9f9f9;stroke-width:3.27740288;stroke-opacity:1"
             y="1014.9995"
             x="1873.769"
             id="tspan36887"
             sodipodi:role="line">X</tspan></text>
      </g>
      <g
         style="fill:#000000;fill-opacity:0;stroke:#000000;stroke-width:3.78134441;stroke-linecap:round;stroke-linejoin:round;stroke-miterlimit:4;stroke-dasharray:none;stroke-opacity:0"
         transform="matrix(0.79336864,0,0,0.79336864,1886.1022,-1088.6089)"
         id="g36949">
        <path
           inkscape:connector-curvature="0"
           id="path36947"
           style="fill:#000000;fill-opacity:0;fill-rule:nonzero;stroke:#000000;stroke-width:3.78134441;stroke-linecap:round;stroke-linejoin:round;stroke-miterlimit:4;stroke-dasharray:none;stroke-opacity:0"
           d="m 0,0 h 97.129 v 34.186 l 0.499,0.832 c 11.608,19.35 25.716,40.009 37.741,55.264 15.412,19.541 23.558,43.014 23.558,67.882 0,60.681 -49.363,110.049 -110.04,110.049 -60.683,0 -110.053,-49.368 -110.053,-110.049 0,-24.853 8.143,-48.32 23.548,-67.865 13.34,-16.928 26.181,-35.706 37.134,-54.306 L 0,35.171 Z M 104.129,-7 H -7 v 40.261 c -10.689,18.064 -23.164,36.269 -36.116,52.705 -16.388,20.791 -25.05,45.757 -25.05,72.198 0,64.541 52.51,117.049 117.053,117.049 64.536,0 117.04,-52.508 117.04,-117.049 0,-26.456 -8.666,-51.428 -25.061,-72.216 -11.68,-14.817 -25.369,-34.833 -36.737,-53.702 z" />
      </g>
    </g>
  </g>
</svg>
